<svg xmlns="http://www.w3.org/2000/svg" viewBox="0 0 49.01 37.51"><defs><style>.cls-1{fill:#414042;}</style></defs><title>double_chevron</title><g id="Layer_2" data-name="Layer 2"><g id="Layer_1-2" data-name="Layer 1"><path class="cls-1" d="M25.42,22.85,15.36,36.92a1.44,1.44,0,0,1-1.16.59H1.43A1.41,1.41,0,0,1,.28,35.27L11.53,19.63a1.41,1.41,0,0,0,0-1.65L.27,2.24A1.42,1.42,0,0,1,1.42,0H14.2a1.42,1.42,0,0,1,1.16.6L25.43,14.76a5.79,5.79,0,0,1,1.07,3.36v1.35A5.86,5.86,0,0,1,25.42,22.85Zm22.51,0L37.86,36.92a1.4,1.4,0,0,1-1.15.59H23.94a1.41,1.41,0,0,1-1.15-2.24L34,19.63A1.4,1.4,0,0,0,34,18L22.78,2.24A1.41,1.41,0,0,1,23.93,0H36.71a1.39,1.39,0,0,1,1.15.6L47.94,14.76A5.79,5.79,0,0,1,49,18.12v1.35A5.86,5.86,0,0,1,47.93,22.85Z"/></g></g></svg>