<?xml version="1.0" standalone="no"?>
<!DOCTYPE svg PUBLIC "-//W3C//DTD SVG 20010904//EN"
 "http://www.w3.org/TR/2001/REC-SVG-20010904/DTD/svg10.dtd">
<svg version="1.0" xmlns="http://www.w3.org/2000/svg"
 width="300.000000pt" height="300.000000pt" viewBox="0 0 300.000000 300.000000"
 preserveAspectRatio="xMidYMid meet">
<metadata>
Created by potrace 1.11, written by Peter Selinger 2001-2013
</metadata>
<g transform="translate(0.000000,300.000000) scale(0.100000,-0.100000)"
fill="#000000" stroke="none">
<path d="M840 2715 c-198 -46 -292 -128 -376 -326 -47 -111 -54 -144 -59 -270
-3 -62 -7 -114 -10 -117 -2 -2 -26 -6 -52 -7 -150 -8 -246 -72 -310 -205 l-27
-55 0 -360 c0 -317 2 -366 18 -412 20 -61 60 -92 124 -96 37 -2 51 -12 144
-102 57 -55 141 -133 188 -174 47 -41 92 -82 100 -91 37 -39 65 -50 127 -50
l62 0 0 241 c0 133 2 243 4 245 2 2 92 -84 200 -192 l197 -197 0 -66 c1 -146
6 -201 17 -212 9 -9 58 -14 148 -16 l135 -3 1 28 c0 15 0 170 1 345 0 287 2
317 17 318 9 0 175 1 369 1 l354 1 198 -199 198 -199 5 -129 c4 -101 9 -132
21 -145 14 -13 40 -16 146 -16 124 -1 130 0 131 19 0 12 1 166 1 344 0 322 0
322 22 324 11 0 31 0 44 -1 l22 -2 0 314 c0 278 -2 322 -19 390 -39 149 -114
250 -276 368 -58 42 -369 203 -560 289 -62 28 -175 80 -280 130 -44 21 -102
48 -130 60 -27 12 -115 54 -195 92 -173 83 -248 111 -355 131 -95 18 -269 19
-345 2z"/>
</g>
</svg>
