<svg xmlns="http://www.w3.org/2000/svg"
     viewBox="0 0 100 100">
    <defs>
        <style>.cls-1 {
            fill: #fff;
        }</style>
    </defs>
    <title>arrow_circle_left_1</title>
    <g id="Layer_2"
       data-name="Layer 2">
        <g id="Layer_1-2"
           data-name="Layer 1">
            <path class="cls-1"
                  d="M50,0a50,50,0,1,0,50,50A50,50,0,0,0,50,0ZM62.34,73.51H45.68a1.5,1.5,0,0,1-1.23-.64L28.59,52.77a4.48,4.48,0,0,1,0-5.54L44.45,27.12a1.52,1.52,0,0,1,1.23-.63H62.33a1.51,1.51,0,0,1,1.23,2.4L49.05,49.06a1.52,1.52,0,0,0,0,1.77L63.57,71.11A1.51,1.51,0,0,1,62.34,73.51Z"/>
        </g>
    </g>
</svg>