<svg xmlns="http://www.w3.org/2000/svg" viewBox="0 0 100 100"><defs><style>.cls-1{fill:#fff;}</style></defs><title>arrow_circle_right_1</title><g id="Layer_2" data-name="Layer 2"><g id="Layer_1-2" data-name="Layer 1"><path class="cls-1" d="M50,0a50,50,0,1,0,50,50A50,50,0,0,0,50,0ZM71.41,52.77,55.55,72.88a1.52,1.52,0,0,1-1.23.63H37.67a1.51,1.51,0,0,1-1.23-2.4L51,50.94a1.52,1.52,0,0,0,0-1.77L36.43,28.89a1.51,1.51,0,0,1,1.23-2.4H54.32a1.5,1.5,0,0,1,1.23.64l15.86,20.1A4.48,4.48,0,0,1,71.41,52.77Z"/></g></g></svg>