<svg xmlns="http://www.w3.org/2000/svg" viewBox="0 0 245.8 324.39"><defs><style>.cls-1{fill:#009d57;}.cls-2{fill:#231f20;}.cls-3{fill:#d1ccbc;}.cls-4{fill:#fff;}</style></defs><title>logo_full</title><g id="Layer_2" data-name="Layer 2"><g id="Layer_1-2" data-name="Layer 1"><rect class="cls-1" width="245.8" height="205.89"/><rect class="cls-2" x="0.18" y="205.54" width="245.36" height="118.85"/><path class="cls-2" d="M171.05,48.94l-.18.18-.29-.29.18-.11L120.58,25.38c-15.43-9.12-37.43-12.3-54.8-5.17-.58.18-.7.7-1.32.64-10.07,5.7-15,16.84-18.23,27-1.48,5.93-1,12.72-1.48,19.11a31.48,31.48,0,0,0-13,2c-7.72,2.09-12.23,10.56-14.27,17.64l0,43.88c.66,4,.7,8.77,3.67,12.08,2.58,1.56,5.58,2.84,8.9,1.91l9.66,9.64c8.63,8.23,12.34,11.15,21.49,19.27l8.84.11V139.44l8.57,7.83,19.45,19.68c0,5,0,10.76-.06,15.5.34,1.62.51,3.6,2.16,4.46l14.29.18,4.14,0,.11-31.18-.07-16.43H170l27.48,27.8.18,13.29c.41,2.61-.13,5.62,2.91,6.5h17.54c.06-.12.06-16.15,0-16.26l0-31.33c1.72.06,4,0,6.29,0l0-29.68c.58-11.31-1.09-22.7-7.43-31.63-12.63-15.44-30.05-21.53-45.94-29.2M52.87,113.8l0-38.95c5.9.7,14,1.61,14,14.39,0,11.49,0,14.67.06,24.55-4.51.18-9.48.18-14.11,0"/><path class="cls-3" d="M52.92,74.85l0,38.95c4.63.18,9.6.18,14.11,0-.06-9.89-.06-13.07-.06-24.55,0-12.79-8.11-13.69-14-14.39"/><path class="cls-4" d="M228,228.29a7.59,7.59,0,1,0,7.6,7.59,7.59,7.59,0,0,0-7.6-7.59m0,13.8a6.19,6.19,0,1,1,6.19-6.19,6.19,6.19,0,0,1-6.19,6.19"/><path class="cls-4" d="M231.39,239.55a1.9,1.9,0,0,1,0-.24v-.74a2.25,2.25,0,0,0-.73-1.85,2.86,2.86,0,0,0-1.17-.47,2.66,2.66,0,0,0,1.42-.55,1.78,1.78,0,0,0,.58-1.5,2.09,2.09,0,0,0-1.1-2,3.93,3.93,0,0,0-1.63-.42c-.12,0-.68,0-1.7,0h-2.29V240h2.16V237.1h.45l.48,0a2.34,2.34,0,0,1,.74.13,1,1,0,0,1,.6.6,3.69,3.69,0,0,1,.14,1,6,6,0,0,0,.13,1.14h2.06l-.07-.23a1,1,0,0,1-.06-.24m-2.45-4.22a2,2,0,0,1-1.19.29h-.83v-2.39h.52a3.65,3.65,0,0,1,1.26.17.94.94,0,0,1,.66.94,1.13,1.13,0,0,1-.42,1"/><path class="cls-4" d="M59.8,249.53H73.62l0,49.4c0,1.31,1,1.81,2.22,1.81a1.76,1.76,0,0,0,2-1.81v-49.4H93.73c0,7.2,0,13.92,0,24.82v34.89H77.82V307c-3.45,3-9.4,3.05-13.4,1.39a8.39,8.39,0,0,1-4.62-7.19v-51.7Z"/><path class="cls-4" d="M117.71,249.54c-2.25,0-3.83,0-5.71,0v-3.65c0-2.63,2.14-2.08,3.48-2.08V234.5H104.09c-4.13,0-5.89,3.5-5.89,7.51s-.16,7.56,0,7.57H96.06l0,9h2.11l0,50.65H112V271.81l.05-13.2h5.66l0,50.65h14V258.6H136v-9c-1.87,0-3.36,0-4.29,0v-3.65c0-2.75,2.42-2.08,4.29-2.08V234.5H123.4c-3.44,0-5.68,3.5-5.68,7.51s0,7.53,0,7.53"/><path class="cls-4" d="M186.82,234.49l0,74.76H172.51l0-74.76Z"/><path class="cls-4" d="M51.06,270.8c6.62,0,6.61,7.2,6.6,8.9,0,6,0,15.17,0,18.35,0,6.51-2.11,11.27-8.95,11.27H18.18V234.51H47.61c6.54,0,10.08,5.44,10.07,13.06,0,0,0,12.67,0,14.47,0,4.57-2.81,8.73-6.7,8.73M36.18,298c2.86,0,3.42.37,3.45-1.55v-19c0-1.51-.59-1.34-3.45-1.34V298Zm3.48-34.25,0-18.74c0-1.44-.48-1.26-3.44-1.26V265c2.13,0,3.51.38,3.48-1.18"/><path class="cls-4" d="M134.06,287.54c0-3.6,1.06-7.27,4.89-9.8,5.18-3.35,10.71-5.49,13.46-9.77.54-.71.35-7.14.36-10.6a1.22,1.22,0,1,0-2.43,0c0,3.61,0,6.36,0,10.23H136.86c0,.07,0-6.92,0-11.55,0-3.8,2.38-6.48,4.93-6.49,8.52,0,13.08,0,20.92,0,5.08,0,6.26,4.42,6.26,7.26v52.44H138.14c-2.53,0-4.08-1.8-4.08-5-.06,0,0-8,0-16.75m14.61,14.38c0,3.12,3.11,3.12,3.1.16,0-2.08,0-9.57,0-10.47l0-6.87c0-1.22,0-4.88,0-6.35-.71,1.39-3.1,2.09-3.11,4.78Z"/><path class="cls-4" d="M190.69,255.84c0-3.09,1.39-6.27,4.63-6.27h23.78c3.28,0,5.63,1.77,5.63,6.26v48.45c0,3.83-1.68,5.31-5.13,5.31H195.13c-3,0-4.43-2.21-4.46-5.32Zm14.4,42.48v2.49c0,3.05,3.74,3.05,3.74,0V258.61c0-3.73-3.74-3.73-3.74,0Z"/></g></g></svg>