<svg xmlns="http://www.w3.org/2000/svg" viewBox="0 0 207.03 170.78"><defs><style>.cls-1{fill:#231f20;}.cls-2{fill:#d1ccbc;}</style></defs><title>logo_buffalo</title><g id="Layer_2" data-name="Layer 2"><g id="Layer_1-2" data-name="Layer 1"><path class="cls-1" d="M153.56,32.63l-.18.18-.29-.29.18-.11L103.09,9.07C87.66,0,65.65-3.23,48.29,3.9c-.58.18-.7.7-1.32.64-10.07,5.7-15,16.84-18.23,27-1.48,5.93-1,12.72-1.48,19.11a31.48,31.48,0,0,0-13,2C6.57,54.75,2.06,63.23,0,70.31l0,43.88c.66,4,.7,8.77,3.67,12.08,2.58,1.56,5.58,2.84,8.9,1.91l9.66,9.64c8.63,8.23,12.34,11.15,21.49,19.27l8.84.11V123.13L61.14,131l19.45,19.68c0,5,0,10.76-.06,15.5.34,1.62.51,3.6,2.16,4.46l14.29.18,4.14,0,.11-31.18-.07-16.43h51.31l27.48,27.8.18,13.29c.41,2.61-.13,5.62,2.91,6.5h17.54c.06-.12.06-16.15,0-16.26l0-31.33c1.72.06,4,0,6.29,0l0-29.68c.58-11.31-1.09-22.7-7.43-31.63-12.63-15.44-30.05-21.53-45.94-29.2M35.37,97.49l0-38.95c5.9.7,14,1.61,14,14.39,0,11.49,0,14.67.06,24.55-4.51.18-9.48.18-14.11,0"/><path class="cls-2" d="M35.42,58.55l0,38.95c4.63.18,9.6.18,14.11,0-.06-9.89-.06-13.07-.06-24.55,0-12.79-8.11-13.69-14-14.39"/></g></g></svg>